<mxfile host="Electron" modified="2024-07-14T17:54:44.620Z" agent="Mozilla/5.0 (Windows NT 10.0; Win64; x64) AppleWebKit/537.36 (KHTML, like Gecko) draw.io/24.5.3 Chrome/124.0.6367.207 Electron/30.0.6 Safari/537.36" etag="rXgJooOsOwq-4UDnxwxK" version="24.5.3" type="device" pages="8">
  <diagram name="Pluto" id="hAP3Xp6mIZ2TKSxRFyVz">
    <mxGraphModel dx="794" dy="519" grid="1" gridSize="10" guides="1" tooltips="1" connect="1" arrows="1" fold="1" page="1" pageScale="1" pageWidth="850" pageHeight="1100" math="0" shadow="0">
      <root>
        <mxCell id="0" />
        <mxCell id="1" parent="0" />
        <mxCell id="3UhF0q_VdVfj6bOmLjp9-1" value="Pluto" style="rounded=0;whiteSpace=wrap;html=1;" parent="1" vertex="1">
          <mxGeometry x="280" y="40" width="120" height="60" as="geometry" />
        </mxCell>
        <mxCell id="pWpSiszatdiQVItsixrt-1" value="Mechanics-Subsystems" style="rounded=0;whiteSpace=wrap;html=1;" parent="1" vertex="1">
          <mxGeometry x="80" y="160" width="120" height="60" as="geometry" />
        </mxCell>
        <mxCell id="pWpSiszatdiQVItsixrt-2" value="Electronic-&lt;br&gt;Subsystem" style="rounded=0;whiteSpace=wrap;html=1;" parent="1" vertex="1">
          <mxGeometry x="280" y="160" width="120" height="60" as="geometry" />
        </mxCell>
        <mxCell id="pWpSiszatdiQVItsixrt-3" value="Control-&lt;div&gt;Subsystem&lt;/div&gt;" style="rounded=0;whiteSpace=wrap;html=1;" parent="1" vertex="1">
          <mxGeometry x="480" y="160" width="120" height="60" as="geometry" />
        </mxCell>
        <mxCell id="jU3XO9v5gPOJudANY8Xw-1" value="&lt;div&gt;Show dependency graph of all systems and subsystems&lt;br&gt;&lt;/div&gt;Show interactions of different users to systems&lt;div&gt;Show that the user defines the application.&lt;/div&gt;&lt;div&gt;Show how sub systems can be updated for future generations.&lt;/div&gt;&lt;div&gt;Show how the subsystems have unified names that can be seen from anywhere.&lt;/div&gt;&lt;div&gt;Show versioning of subsystems.&lt;/div&gt;&lt;div&gt;Show the power of repositories &amp;amp; git.&lt;/div&gt;&lt;div&gt;Have a global release-notes &amp;amp; versioning format&lt;/div&gt;&lt;div&gt;&lt;br&gt;&lt;/div&gt;&lt;div&gt;&lt;br&gt;&lt;/div&gt;" style="text;html=1;align=left;verticalAlign=middle;whiteSpace=wrap;rounded=0;" parent="1" vertex="1">
          <mxGeometry x="80" y="230" width="310" height="170" as="geometry" />
        </mxCell>
      </root>
    </mxGraphModel>
  </diagram>
  <diagram id="QdXpHZ8lhcDjR6M9M7fJ" name="Mechanics">
    <mxGraphModel dx="1588" dy="1038" grid="1" gridSize="10" guides="1" tooltips="1" connect="1" arrows="1" fold="1" page="1" pageScale="1" pageWidth="850" pageHeight="1100" math="0" shadow="0">
      <root>
        <mxCell id="0" />
        <mxCell id="1" parent="0" />
        <mxCell id="LaZYj3ZorMH4z4DHJGRm-1" value="Mechanics" style="rounded=0;whiteSpace=wrap;html=1;" vertex="1" parent="1">
          <mxGeometry x="300" y="80" width="120" height="60" as="geometry" />
        </mxCell>
      </root>
    </mxGraphModel>
  </diagram>
  <diagram id="2AQ_N3Oy0AHv1GrFkZsZ" name="Electronics">
    <mxGraphModel dx="794" dy="519" grid="1" gridSize="10" guides="1" tooltips="1" connect="1" arrows="1" fold="1" page="1" pageScale="1" pageWidth="850" pageHeight="1100" math="0" shadow="0">
      <root>
        <mxCell id="0" />
        <mxCell id="1" parent="0" />
        <mxCell id="7nrOjrR3I5G_HVQ4X9n0-1" value="Electronics" style="rounded=0;whiteSpace=wrap;html=1;" vertex="1" parent="1">
          <mxGeometry x="260" y="160" width="120" height="60" as="geometry" />
        </mxCell>
        <mxCell id="lDcOXARCFyEBunmuck8u-1" value="pluto-pico" style="rounded=0;whiteSpace=wrap;html=1;" vertex="1" parent="1">
          <mxGeometry x="160" y="280" width="120" height="60" as="geometry" />
        </mxCell>
        <mxCell id="lDcOXARCFyEBunmuck8u-2" value="pluto-pi" style="rounded=0;whiteSpace=wrap;html=1;" vertex="1" parent="1">
          <mxGeometry x="360" y="280" width="120" height="60" as="geometry" />
        </mxCell>
        <mxCell id="BFywZqSJK1bSGA5R6dcz-1" value="Show dependencies to other systems" style="text;html=1;align=center;verticalAlign=middle;whiteSpace=wrap;rounded=0;" vertex="1" parent="1">
          <mxGeometry x="400" y="175" width="230" height="30" as="geometry" />
        </mxCell>
      </root>
    </mxGraphModel>
  </diagram>
  <diagram id="nNUpWDnkHryu84aSdaQi" name="Control">
    <mxGraphModel dx="794" dy="519" grid="1" gridSize="10" guides="1" tooltips="1" connect="1" arrows="1" fold="1" page="1" pageScale="1" pageWidth="850" pageHeight="1100" math="0" shadow="0">
      <root>
        <mxCell id="0" />
        <mxCell id="1" parent="0" />
        <mxCell id="QMlMdQhPNf8iz3Y6gK80-1" value="Control-&lt;div&gt;Subsystem&lt;/div&gt;" style="rounded=0;whiteSpace=wrap;html=1;" parent="1" vertex="1">
          <mxGeometry x="280" y="40" width="120" height="60" as="geometry" />
        </mxCell>
        <mxCell id="wLZJatHHOHSjD06fu7Xj-1" value="pluto-pico" style="rounded=0;whiteSpace=wrap;html=1;" parent="1" vertex="1">
          <mxGeometry x="115" y="160" width="120" height="60" as="geometry" />
        </mxCell>
        <mxCell id="wLZJatHHOHSjD06fu7Xj-2" value="pluto-control" style="rounded=0;whiteSpace=wrap;html=1;" parent="1" vertex="1">
          <mxGeometry x="275" y="160" width="120" height="60" as="geometry" />
        </mxCell>
        <mxCell id="wLZJatHHOHSjD06fu7Xj-3" value="pluto-app" style="rounded=0;whiteSpace=wrap;html=1;" parent="1" vertex="1">
          <mxGeometry x="435" y="160" width="120" height="60" as="geometry" />
        </mxCell>
        <mxCell id="LEXA61a_3Ls_ledpPIha-1" value="&lt;div style=&quot;text-align: left;&quot;&gt;&lt;ul&gt;&lt;li&gt;&lt;span style=&quot;background-color: initial;&quot;&gt;Explain puto-pico.&lt;/span&gt;&lt;/li&gt;&lt;li&gt;Purpose of the firmware&lt;/li&gt;&lt;li&gt;Purpose of Real-Time&lt;/li&gt;&lt;li&gt;How does the pluto-shell work&lt;/li&gt;&lt;li&gt;API-description&lt;/li&gt;&lt;li&gt;&lt;span style=&quot;background-color: initial;&quot;&gt;Version management&lt;/span&gt;&lt;br&gt;&lt;/li&gt;&lt;li&gt;Missing features, current state&lt;/li&gt;&lt;/ul&gt;&lt;/div&gt;" style="text;html=1;align=center;verticalAlign=middle;whiteSpace=wrap;rounded=0;" parent="1" vertex="1">
          <mxGeometry x="85" y="230" width="190" height="140" as="geometry" />
        </mxCell>
        <mxCell id="D7Mr4tNHuS1M9-T5sKSy-1" value="Show dependencies to other systems" style="text;html=1;align=center;verticalAlign=middle;whiteSpace=wrap;rounded=0;" parent="1" vertex="1">
          <mxGeometry x="40" y="55" width="230" height="30" as="geometry" />
        </mxCell>
        <mxCell id="kMq2sxP0Lpq7Taj5w3Bw-2" value="&lt;div style=&quot;&quot;&gt;&lt;ul&gt;&lt;li&gt;&lt;span style=&quot;background-color: initial;&quot;&gt;Explain puto-control.&lt;/span&gt;&lt;/li&gt;&lt;li&gt;Purpose of pluto-control&lt;/li&gt;&lt;li&gt;How does the gui work?&lt;/li&gt;&lt;li&gt;API-description&lt;/li&gt;&lt;li&gt;Version management&lt;/li&gt;&lt;li&gt;Missing features current state&lt;/li&gt;&lt;/ul&gt;&lt;/div&gt;" style="text;html=1;align=left;verticalAlign=middle;whiteSpace=wrap;rounded=0;horizontal=1;" parent="1" vertex="1">
          <mxGeometry x="245" y="220" width="190" height="130" as="geometry" />
        </mxCell>
        <mxCell id="kMq2sxP0Lpq7Taj5w3Bw-3" value="&lt;div style=&quot;&quot;&gt;&lt;ul&gt;&lt;li&gt;&lt;span style=&quot;background-color: initial;&quot;&gt;Explain puto-app&lt;/span&gt;&lt;/li&gt;&lt;li&gt;Purpose of pluto-app&lt;/li&gt;&lt;li&gt;How does the gui work?&lt;/li&gt;&lt;li&gt;API-description&lt;/li&gt;&lt;li&gt;Version management&lt;/li&gt;&lt;li&gt;Missing features current state&lt;/li&gt;&lt;/ul&gt;&lt;/div&gt;" style="text;html=1;align=left;verticalAlign=middle;whiteSpace=wrap;rounded=0;" parent="1" vertex="1">
          <mxGeometry x="405" y="240" width="190" height="90" as="geometry" />
        </mxCell>
      </root>
    </mxGraphModel>
  </diagram>
  <diagram id="loR_x_ztATt8MWosYeBI" name="pluto-pico-firmware">
    <mxGraphModel dx="794" dy="519" grid="1" gridSize="10" guides="1" tooltips="1" connect="1" arrows="1" fold="1" page="1" pageScale="1" pageWidth="850" pageHeight="1100" math="0" shadow="0">
      <root>
        <mxCell id="0" />
        <mxCell id="1" parent="0" />
        <mxCell id="hCr9EU_oQSeNe-CLafhv-1" value="pluto-pico" style="rounded=0;whiteSpace=wrap;html=1;" parent="1" vertex="1">
          <mxGeometry x="280" y="80" width="120" height="60" as="geometry" />
        </mxCell>
        <mxCell id="hCr9EU_oQSeNe-CLafhv-2" value="device-tree" style="rounded=0;whiteSpace=wrap;html=1;" parent="1" vertex="1">
          <mxGeometry x="200" y="200" width="120" height="60" as="geometry" />
        </mxCell>
        <mxCell id="hCr9EU_oQSeNe-CLafhv-3" value="pluto-shell" style="rounded=0;whiteSpace=wrap;html=1;" parent="1" vertex="1">
          <mxGeometry x="360" y="200" width="120" height="60" as="geometry" />
        </mxCell>
        <mxCell id="VRoL-rHwqwnJV_QdqXL7-1" value="Pluto-pico api over USB/Serial connection" style="text;html=1;align=center;verticalAlign=middle;whiteSpace=wrap;rounded=0;" parent="1" vertex="1">
          <mxGeometry x="360" y="280" width="120" height="50" as="geometry" />
        </mxCell>
        <mxCell id="VRoL-rHwqwnJV_QdqXL7-2" value="Pluto-pico schematics" style="text;html=1;align=center;verticalAlign=middle;whiteSpace=wrap;rounded=0;" parent="1" vertex="1">
          <mxGeometry x="200" y="290" width="120" height="30" as="geometry" />
        </mxCell>
      </root>
    </mxGraphModel>
  </diagram>
  <diagram id="iabhPNMh88TV5EQ04H2E" name="pluto-control">
    <mxGraphModel dx="794" dy="519" grid="1" gridSize="10" guides="1" tooltips="1" connect="1" arrows="1" fold="1" page="1" pageScale="1" pageWidth="850" pageHeight="1100" math="0" shadow="0">
      <root>
        <mxCell id="0" />
        <mxCell id="1" parent="0" />
        <mxCell id="c8rQQIqt7O-eEC-ErxHQ-1" value="pluto-control" style="rounded=0;whiteSpace=wrap;html=1;" vertex="1" parent="1">
          <mxGeometry x="275" y="160" width="120" height="60" as="geometry" />
        </mxCell>
        <mxCell id="PpjkPTCjYxKh_8Lo8hRM-1" value="pluto-pico-api" style="rounded=0;whiteSpace=wrap;html=1;" vertex="1" parent="1">
          <mxGeometry x="360" y="280" width="120" height="60" as="geometry" />
        </mxCell>
        <mxCell id="PpjkPTCjYxKh_8Lo8hRM-2" value="Pluto-pico api over USB/Serial connection" style="text;html=1;align=center;verticalAlign=middle;whiteSpace=wrap;rounded=0;" vertex="1" parent="1">
          <mxGeometry x="360" y="360" width="120" height="50" as="geometry" />
        </mxCell>
        <mxCell id="BBOTVeiJUJI4LyGxpL8A-1" value="pluto-app-api" style="rounded=0;whiteSpace=wrap;html=1;" vertex="1" parent="1">
          <mxGeometry x="160" y="280" width="120" height="60" as="geometry" />
        </mxCell>
        <mxCell id="BBOTVeiJUJI4LyGxpL8A-2" value="Connection firebase" style="text;html=1;align=center;verticalAlign=middle;whiteSpace=wrap;rounded=0;" vertex="1" parent="1">
          <mxGeometry x="160" y="360" width="120" height="50" as="geometry" />
        </mxCell>
      </root>
    </mxGraphModel>
  </diagram>
  <diagram id="moLwC9zKpBOlV1JlhX63" name="Page-7">
    <mxGraphModel dx="1323" dy="865" grid="1" gridSize="10" guides="1" tooltips="1" connect="1" arrows="1" fold="1" page="1" pageScale="1" pageWidth="850" pageHeight="1100" math="0" shadow="0">
      <root>
        <mxCell id="0" />
        <mxCell id="1" parent="0" />
        <mxCell id="mS_neS50ixPJOqA5aUt5-1" value="&amp;nbsp;PLUTO 6.0 Delivery robot" style="rounded=0;whiteSpace=wrap;html=1;fontSize=20;align=left;verticalAlign=top;" vertex="1" parent="1">
          <mxGeometry x="60" y="439" width="430" height="231" as="geometry" />
        </mxCell>
        <mxCell id="mS_neS50ixPJOqA5aUt5-3" value="&lt;font style=&quot;font-size: 18px&quot;&gt;Mechanics&lt;/font&gt;" style="rounded=0;whiteSpace=wrap;html=1;verticalAlign=top;" vertex="1" parent="1">
          <mxGeometry x="70" y="480" width="120" height="160" as="geometry" />
        </mxCell>
        <mxCell id="mS_neS50ixPJOqA5aUt5-4" value="&lt;font style=&quot;font-size: 18px&quot;&gt;Electronics&lt;/font&gt;" style="rounded=0;whiteSpace=wrap;html=1;verticalAlign=top;" vertex="1" parent="1">
          <mxGeometry x="210" y="480" width="120" height="160" as="geometry" />
        </mxCell>
        <mxCell id="mS_neS50ixPJOqA5aUt5-5" value="&lt;font style=&quot;font-size: 18px&quot;&gt;Control&lt;/font&gt;" style="rounded=0;whiteSpace=wrap;html=1;verticalAlign=top;strokeColor=#FF0000;strokeWidth=4;" vertex="1" parent="1">
          <mxGeometry x="350" y="480" width="120" height="160" as="geometry" />
        </mxCell>
        <mxCell id="mS_neS50ixPJOqA5aUt5-10" value="&amp;nbsp;PLUTO 7" style="rounded=0;whiteSpace=wrap;html=1;fontSize=20;align=left;verticalAlign=top;" vertex="1" parent="1">
          <mxGeometry x="60" y="760" width="430" height="231" as="geometry" />
        </mxCell>
        <mxCell id="mS_neS50ixPJOqA5aUt5-11" value="&lt;font style=&quot;font-size: 18px&quot;&gt;Mechanics&lt;/font&gt;" style="rounded=0;whiteSpace=wrap;html=1;verticalAlign=top;" vertex="1" parent="1">
          <mxGeometry x="70" y="801" width="120" height="160" as="geometry" />
        </mxCell>
        <mxCell id="mS_neS50ixPJOqA5aUt5-12" value="Chassis" style="rounded=0;whiteSpace=wrap;html=1;fontSize=16;fillColor=#d5e8d4;strokeColor=#82b366;" vertex="1" parent="1">
          <mxGeometry x="80" y="840" width="100" height="40" as="geometry" />
        </mxCell>
        <mxCell id="mS_neS50ixPJOqA5aUt5-13" value="Transmission" style="rounded=0;whiteSpace=wrap;html=1;fontSize=16;fillColor=#d5e8d4;strokeColor=#82b366;" vertex="1" parent="1">
          <mxGeometry x="80" y="901" width="100" height="40" as="geometry" />
        </mxCell>
        <mxCell id="mS_neS50ixPJOqA5aUt5-14" value="&lt;font style=&quot;font-size: 18px&quot;&gt;Electrics&lt;/font&gt;" style="rounded=0;whiteSpace=wrap;html=1;verticalAlign=top;" vertex="1" parent="1">
          <mxGeometry x="210" y="801" width="120" height="160" as="geometry" />
        </mxCell>
        <mxCell id="mS_neS50ixPJOqA5aUt5-15" value="Motors" style="rounded=0;whiteSpace=wrap;html=1;fontSize=16;fillColor=#f8cecc;strokeColor=#b85450;" vertex="1" parent="1">
          <mxGeometry x="220" y="840" width="100" height="40" as="geometry" />
        </mxCell>
        <mxCell id="mS_neS50ixPJOqA5aUt5-16" value="Batteries" style="rounded=0;whiteSpace=wrap;html=1;fontSize=16;fillColor=#d5e8d4;strokeColor=#82b366;" vertex="1" parent="1">
          <mxGeometry x="220" y="901" width="100" height="40" as="geometry" />
        </mxCell>
        <mxCell id="mS_neS50ixPJOqA5aUt5-17" value="&lt;font style=&quot;font-size: 18px&quot;&gt;Control&lt;/font&gt;" style="rounded=0;whiteSpace=wrap;html=1;verticalAlign=top;" vertex="1" parent="1">
          <mxGeometry x="350" y="801" width="120" height="160" as="geometry" />
        </mxCell>
        <mxCell id="mS_neS50ixPJOqA5aUt5-18" value="sensors" style="rounded=0;whiteSpace=wrap;html=1;fontSize=16;fillColor=#d5e8d4;strokeColor=#82b366;" vertex="1" parent="1">
          <mxGeometry x="360" y="840" width="100" height="40" as="geometry" />
        </mxCell>
        <mxCell id="mS_neS50ixPJOqA5aUt5-19" value="actuators" style="rounded=0;whiteSpace=wrap;html=1;fontSize=16;fillColor=#f8cecc;strokeColor=#b85450;" vertex="1" parent="1">
          <mxGeometry x="360" y="901" width="100" height="40" as="geometry" />
        </mxCell>
        <mxCell id="mS_neS50ixPJOqA5aUt5-20" value="sensors" style="rounded=0;whiteSpace=wrap;html=1;fontSize=16;fillColor=#fff2cc;strokeColor=#d6b656;verticalAlign=top;align=left;" vertex="1" parent="1">
          <mxGeometry x="520" y="760" width="200" height="231" as="geometry" />
        </mxCell>
        <mxCell id="mS_neS50ixPJOqA5aUt5-21" value="distance sensor" style="rounded=0;whiteSpace=wrap;html=1;fontSize=16;" vertex="1" parent="1">
          <mxGeometry x="570" y="801" width="100" height="40" as="geometry" />
        </mxCell>
        <mxCell id="mS_neS50ixPJOqA5aUt5-22" value="temperature sensor" style="rounded=0;whiteSpace=wrap;html=1;fontSize=16;" vertex="1" parent="1">
          <mxGeometry x="570" y="855.5" width="100" height="40" as="geometry" />
        </mxCell>
        <mxCell id="mS_neS50ixPJOqA5aUt5-23" value="battery voltage" style="rounded=0;whiteSpace=wrap;html=1;fontSize=16;" vertex="1" parent="1">
          <mxGeometry x="570" y="911" width="100" height="40" as="geometry" />
        </mxCell>
        <mxCell id="mS_neS50ixPJOqA5aUt5-25" value="&lt;font color=&quot;#3333ff&quot;&gt;Team M&lt;/font&gt;" style="sketch=0;aspect=fixed;html=1;points=[];align=center;image;fontSize=16;image=img/lib/mscae/Person.svg;fontColor=#FF0000;" vertex="1" parent="1">
          <mxGeometry x="111.5" y="535" width="37" height="50" as="geometry" />
        </mxCell>
        <mxCell id="mS_neS50ixPJOqA5aUt5-26" value="&lt;font color=&quot;#66ff66&quot;&gt;Team E&lt;/font&gt;" style="sketch=0;aspect=fixed;html=1;points=[];align=center;image;fontSize=16;image=img/lib/mscae/Person.svg;fontColor=#FFD966;" vertex="1" parent="1">
          <mxGeometry x="250" y="535" width="38.5" height="52.03" as="geometry" />
        </mxCell>
        <mxCell id="mS_neS50ixPJOqA5aUt5-27" value="Team C" style="sketch=0;aspect=fixed;html=1;points=[];align=center;image;fontSize=16;image=img/lib/mscae/Person.svg;imageBackground=none;fontColor=#67AB9F;" vertex="1" parent="1">
          <mxGeometry x="395" y="529.5" width="37" height="50" as="geometry" />
        </mxCell>
      </root>
    </mxGraphModel>
  </diagram>
  <diagram id="PU9aB0fPM8Z6H_8b15IY" name="Page-8">
    <mxGraphModel dx="794" dy="519" grid="1" gridSize="10" guides="1" tooltips="1" connect="1" arrows="1" fold="1" page="1" pageScale="1" pageWidth="850" pageHeight="1100" math="0" shadow="0">
      <root>
        <mxCell id="0" />
        <mxCell id="1" parent="0" />
        <mxCell id="gBp8JdLvhO5xUqOzw17n-1" value="" style="verticalLabelPosition=bottom;html=1;verticalAlign=top;align=center;strokeColor=none;fillColor=#00BEF2;shape=mxgraph.azure.mobile;pointerEvents=1;" parent="1" vertex="1">
          <mxGeometry x="568.75" y="330" width="62.5" height="110" as="geometry" />
        </mxCell>
        <mxCell id="gBp8JdLvhO5xUqOzw17n-3" value="" style="shape=image;verticalLabelPosition=bottom;labelBackgroundColor=default;verticalAlign=top;aspect=fixed;imageAspect=0;image=data:image/png,iVBORw0KGgoAAAANSUhEUgAAAIAAAACACAYAAADDPmHLAAAABHNCSVQICAgIfAhkiAAAAAlwSFlzAAADsQAAA7EB9YPtSQAAABl0RVh0U29mdHdhcmUAd3d3Lmlua3NjYXBlLm9yZ5vuPBoAAAYeSURBVHic7Z1NjxRFGMd/EBkOvJhwFPZoSIREXBORu2ddWORDoPI1BIy6iHwClQMhRA/iQb0iHlZNFpPlxYPseiSRZU1YWcFDzzKzNdVd010v3bP1/yXPAfqZp6q2/l2vM1UghBBCCCGEEEIIIYQQQgghhBBCCCGEEGLATuAMcBNYBZ5FttV+Wu8DvQTlExXsB34jfqWX2a/9PIgW2Em7lb9hv6CWoBXO0H7lb9h7kcsqLPzM5kr4ljTN8QHgupH2TwnSFQaP2FwJBxKmPWWkvdI00LZQOcqQZ8a/U/8tg6S/PUBGxATzguN5D5jp2zRFM7crdqa2CK431Pd5WXr/AMsUs4Ov+/av47NWTgB/0P4Id1LMJPXzMrsHHLd8vpTtwPkaCci6LYANO8eYXf5HDYLLRumaAJ4BZy1xNnHC8qHHwAXgKOr/h3FVUFvp76Koq4vAmsVvpixgj9E+fxl4NXzetwRdFcAwRyjqcNjvLrDD5nyK0TdflV/OpCwEvcZoS3DS5njZcLoQLr9bkpts/ntdp6iY2EwB3xlp33B85nPD/0ub023D6Y2SYOb+d6770x/Q/sBzw0478vqm4b9oc1oxnHZbfFz73zntT++kKG/blT+P+8XbY3zG2mW4BhXj7n/ntD+9n3ZFMA+8NGZeXfXrdKiz/53T/nSPovu7wejAMIY96qd1mnovmrcAyva/tT89GXgLoGraE2x/WkTDWr/aDhbPcbUAZfPeJvNSkR7vLqDOvNc2L3XFb/t5aA4Dc8AtBuslt/r/d7iFeN4CGHfeWzYvbbuCUwmgB1wC/rOkuWHrFJs144ziQ8XzFgC4571V89K2KziFAHrAj5a0yuwHqistZLwgAtjI1PC8d9x5adsVnEIAlyzpuOyzRPGCCaApbVdw7PIdpmiKh9O4D8xSLMXuofhq1qLhsw4cShBPAnA892XOiH8f2Gfx2wcsGb6fJIgnATie+/K7EX+2wvddw3chQTwJwPHcF3M3dU+F717D17ZyGjqetfyxVwKngKt1MpTw+QpwDThYWYI4hP4VUZB4od+QKeCBJW7X7AFhvs5lNtlV38WfNXzH6QJ84yXvAq5aYnbVrgQo76dGzEXKB213DN+PE8RLLgCzD+uyPQxQ3kOMTtuWKAZoe/s2y2hlrQOvJIgXXAB1/8hdI0b+LzaIO5congRgECP/PYrl2HFjfk/Jd/QjxJMADGLlv0exHGs238P2hOJNrar80PEkAIPY+T9EsSK3wGDPZIFigGbro2PHs5Znm+EwjO/c0hUvtSh8f38/6VjLq6+EZY4EkDkSQOa4zgiqoosDOx9c5Rn3jJ6uMNaYRi1A5kgAmSMBZI7PGGDS+kQXW30dwIpagMyRADJHAsgcrQMM8F0HmEjUAmSOBJA5EkDmaB1gwJbs412oBcgcCSBzJIDM0TrAAN91gIkcQ6gFyBwJIHMkgMzROsCAtvvwVv5eagEyRwLIHAlAPEc/DvXLf/SzfD3Rr4MNQuU/2Vm+nkgABiHyn/QsX08kAIMQ+U96lq8nwQXgYpIOifq7QfmSn+Xbp+m9jckFcM0Ss6t2tUH5kp/li9+9jckFcJDJOSjy5QblS32Wr++9jckFAMUJnFcozuFru6JNe0jx5jepfEh0lu8Qvvc2tiKAOvHbfl6XOgJ40fBtIgDz3sYqs93baI2vlcDmLBn/fqvC13z2Z4P06pws1uRSKrUANUl9lm+da2ltR9+qC3A8r0vqs3zNexurzHZvowTgeN6ElGf5xr63UQJoQMqzfGPf2zjSx+wuyWhT2q7gWAJPdpYvze9tNKeh1uPxbxtORysy24S2Kzh2CxflLF8LTe5tPGbEXrQ5fWU4VV1oKMITU6DmptUXNqdThtNj4EjgjIhyYglgGlgzYp+0OfaAe4bjMhJBKmIIYBr4y4h7h4qxyHFLRtYopjvHCD8wFANCCWA3RV1dYvTNfwq87Qpw3pIZ2dawDxmD7cC5DmRWFs6eAmepufczA9ztQOZlfnYHeIcSXD+H2tH/8AzwOsX+vsYB3WaVYk9iHvimb09azZEQQgghhBBCCCGEEEIIIYQQQgghhBAiEf8D76cy/rZAptYAAAAASUVORK5CYII=;" parent="1" vertex="1">
          <mxGeometry x="221" y="330" width="88" height="88" as="geometry" />
        </mxCell>
        <mxCell id="gBp8JdLvhO5xUqOzw17n-4" value="" style="shape=image;verticalLabelPosition=bottom;labelBackgroundColor=default;verticalAlign=top;aspect=fixed;imageAspect=0;image=data:image/png,iVBORw0KGgoAAAANSUhEUgAAAIAAAACACAYAAADDPmHLAAAABHNCSVQICAgIfAhkiAAAAAlwSFlzAAADsQAAA7EB9YPtSQAAABl0RVh0U29mdHdhcmUAd3d3Lmlua3NjYXBlLm9yZ5vuPBoAAArGSURBVHic7Z1bjB9VHcc/LezFtlDThl62NjVtQgil+oDENKbGSywgicEiLEQM9YaWi8KDxhcTn3wwEktAfTCB2qiJmihoUAMCEbpt6YVeKCYkEnW3lw1UG+lCG9ju+vD7T5g9c+Z6zpk5M//zSX4Pu/9z+c2c75zbnHMGAoFAwEduAI4Dszk2AVzfkI82WAfcBewEjgGTwNs9O9X738+BbcDahnxshAnyCz+y8YZ8rMpFwBeA54AZil/nDPA34PZeGp2m6E2JrC1cB7xE+etT7Shwbc2+10rXBDAEPIh5wau2E3hPjddRG3kF3CYBLAdeJL0Qnwe+B3xS89sngO8CYxnxDwDL6rqYuuiKAJYhHTnV3wtI5+6DSvis69qAPPG6fsNR4DInV9AQXRDAMHCQpK//ADalxClyXZuAVzRhDyBNTSfoggB+TNLPZ4BFGXGKXtcS4FlN+IeMvfaEqgLwZf7gOk2eT5LfYSsj7EH0Ithc2WuPqCoAH+YP5gNHlLz+Cby3QNyyNdsSks3B4Z4PraaqAIoWvsum4zYlj2lgY8G4VfzbRLJjeFsJf72kzQJQq+Vflohb1b+dSrxnSsT1ElsCKJuuKWuQIV6U/gxwVYn4Vf37gBLvArC6RHzvaKsA7lLS310yvol/u5W4X8uLUEdHwZdeeV18SPn7LzXmreal+tIIVXvlba0BDivpf7RkfBP/1Knkg3kRLi6ZQRXeVyJsq9usHiuUvycM0zMRae77gdaPFT3kUuXv10rEHbXpCLDYcnqVqLsqb7oJeFtJf0HBeKPAOxr/TOwtGxdkSr8J4ISSfpFm7WbsF/4s8O+8jEMTYJ9J5e/354QfBX7F3P7YNHArMK+kfVxJ+/U8Z4MA7HNE+TtrFDAK/IJk4d8O/LpC3h9W/j5cIQ3r9FsT8GUl/edTwuna/Hcw6wiqE0FfNEjLGv0mgDXMnQqeJTkV7KLwL2fuCyFvpoL7TQAATyl57Ij95qLwIfkyqM4ZyEz6UQC3KHnMIH0BV4W/Eek7xNO9yTBNa/SjAOaTXAt4AjeFfynJBSH78aiD348CAPiYJi/bhT9IsrmZIX3BaSP0qwAAfqTJbxaprj9vmPYi4M+atH9omK51+lkAA8AuTZ4ngI8YpLsR/bLwXb08rbAB2cp0DJjSZFbVVHyN59qijSFXaHxM4/JeHLXDp7MppOy2U25FEkPAT0iOZYMA3NgMsAf4DrINbCXyAmkBMIJM734b2RpWZidx3KaBh5E+QyZDyGJClxes4mu8LtrT5IjgpzU4oeJrvK5a6s6hDSSr/XFkQuGStEgFKFsgTcWrk4uALVQ/IGIL+QdEXAJ8lmRncRq4UhdhuxJwHNl1YkoQQDargK8DjyKbOyeBcz2b7P3vEWSF76oK6S8huS7zAV3Al5VAn1N+r7q6ty0C6PLqZXVq+iVdoDeUQGq135bVvVXj+bCn0BWLmev//3SByt64PKuari/xil5fWW6knNjy7ATS1ueR638QgHsBuFj4GYkgD63/JvsC5mky6BK2r0+3/Msrqj45eb93PV4RXD350dPfSBNQ9Peux8tDt+TbxtvAsgQBOIqXhS+FDwX8DwKwKwCfCh8K+B8EYE8AvhU+FPA/CMCOALbgZu2fKUEAjuKpTCrhfCh8CAJwFk/lVCyML4UPQQDO4ql8BjiJvC+4MSNc3Wj9n6cEiNP1mT5T1PvjO9ry9WbzQKAZygjguDMv2ofpuT/eUEYAdxJEAFL4dzbthC3K9AEC7Sb0AQJJygjgJmR4ow4nbJn6WlPNr+hrz0BF8sa5pzRhXIggK78iK18CerTlG5qA8gwD9yF78N/s2QvAN2j593ryaoDQBMixt+qXQOJ2GNnP5yO5M5lFpzr7lWGKffHzMH7WBEEAhtxH8drs3oZ8zCIIwJB9zL0/f0BO414BPK78dhCLBzVYIgigIguRY97U+7M8FmZE8/vf8evzbUEAFVhPcs9kZPHvAqxOCTMLPAasq8/lVIIASrIVGeKlFezjyGkeq9Ef1hS388D3yf5iqGusCWAYuB/ZtnweOR9/P9JJ8rH3W5a0Kt+GHUcWhjbxnsWKAFaTPRQ6QrlPxPjGlaRX+Y+S7AjqbC9yipfudLDIxoCra7qmCGMBDNHucXAeW9GfhjYF3NELsxKp7dKu/QXenQiahzztaWcOXAB+RoHv+ljCWAD3a8Kk2T12fXfKQuTp1l3HyySPUxkAtiFHs/8H2Wu/G1kjoBP+IqT9P5+Sxxmk+XQ9bDQWgKr83yBDoRXA75TfjgFrrbrvhrwqv+j3foqwDhkRpD00roeNxgJ4S/k9Pg5epYl/AXgC+DR+vnTaSn6V74LNSGGnCcHVsNFYAOcoJ4C4vQp8C1hqfh3GlK3yXTCAVPtnUvzIGjYOIodK7Qb+izRDY8BXyO57WW8CfouIYCXJJiDNziE3/5oMR12SV+UvrNmfZUhHMO1UVnXYuIrskchekh+ujDAWwDczMlZtvECYfUg1PJzisG3uIL3K31qTD2lcjTzFafdqFzK03JsRJn5fdaeQGAtgmOx34ZEdQqqpa5CnSm06VDsN/AB3ncYFNF/lFyFv2FjGtmnSNxYA5C+IeJHkgoilSPv/ao7TRTuNQ8ihiWPAWURAY8hn29WhlG9VfhHyho2RZb2NfFaTrhUBgDzd9yLV0RQyX74HuJvsg4jnI4X7BPknkad1GkeQKei0ePt5tw30ucovQt6wMett5GlNetYEYIO1SLV/WpNv3OKdxgGyZ+Ei24dfVX7eUrq8pW5pw8ast5FnNOl4JYCIYeRpLDLHXqRjmWU7aKbKL7KaOm+18wAyzRyPk/U28mlNGl4KIE7RTmNkjyFPwXLgjxnh3qTZKt+GAEDG/kXFrtu65r0AIop2GlfG4uhW5ERV/vq6HE/BtAmIGKDYMPAA+qPkWyOAiLxOY/y1s24mcgd+9vJNGEE63GmFvw+4LCVu6wQQZy3J4dyfEBGMkGwC9jbjZi0MAl9Fhr6TSIfvOeSj1VlvFFstAJChZ9E2sM7X0aYbZura8NJ6AQwhi03ybugh6l2QYmPPZB17HlsvAJC2PksEh6h/a1YQQM1EM5F7kKngKeTV6N00sxSt1U1AOCGkf9CWr48rdQI1kvX1Cp+bgYAlQg3Q5wQB9DlBAH1OVh8gjAK6hbZPF2qAPqeOcwLbcPhTgPyZQJMpz3D+X/NoyzdeA5xVIqgfjw60l8XK32/oAqnv27cov4cmoL2MMrdMjuoCbVcCvQIsqcnBgDuWktxs8oAu4FXIt+3iASeAW0hWIQH/WYw8+WrhT5OxNP5hylfxwdplD5LBIPBXD5wM5saeosBJJIPAQySbg2DttWnkyU8UftZ073rgS8jWpDWEYWHbOAv8C3gSeATZXtZpLgZeY67yP2Uh3c1KmqfJfocSaIhrmVtQr2OnoHTC8ukMYCO69DLoZuXv3yNtnynTyEbMrLwCDeOq+o/QNQO+HQff17iq/iM62wx0pQlwVf1HhGbAY1xX/xGhGfAU19V/RGebAd+5ATtHp9VtE8D1Du5H3zFB84VZ1cYd3A+rtGHl72zTDhji9T3uyiggUJE2zml7/UTRshor1AB9jk0BuPq4tErTHbum/bW6iNZmdXqK9LPqA3Y5iRyXY0xoAvocmwK4B6kFAm45Sbu+yhYIBLzl/5JuZF5QJfbgAAAAAElFTkSuQmCC;" parent="1" vertex="1">
          <mxGeometry x="381" y="330" width="88" height="88" as="geometry" />
        </mxCell>
        <mxCell id="9ClzFNrSrgSI6OmEs9R7-1" value="Control-&lt;div&gt;Subsystem&lt;/div&gt;" style="rounded=0;whiteSpace=wrap;html=1;fillColor=#f8cecc;gradientColor=#ea6b66;strokeColor=#b85450;" parent="1" vertex="1">
          <mxGeometry x="370" y="130" width="120" height="60" as="geometry" />
        </mxCell>
        <mxCell id="9ClzFNrSrgSI6OmEs9R7-2" value="pluto-pico" style="rounded=0;whiteSpace=wrap;html=1;fillColor=#f5f5f5;gradientColor=#b3b3b3;strokeColor=#666666;" parent="1" vertex="1">
          <mxGeometry x="205" y="250" width="120" height="60" as="geometry" />
        </mxCell>
        <mxCell id="9ClzFNrSrgSI6OmEs9R7-3" value="pluto-control" style="rounded=0;whiteSpace=wrap;html=1;fillColor=#fff2cc;gradientColor=#ffd966;strokeColor=#d6b656;" parent="1" vertex="1">
          <mxGeometry x="370" y="250" width="120" height="60" as="geometry" />
        </mxCell>
        <mxCell id="9ClzFNrSrgSI6OmEs9R7-4" value="pluto-customer-app" style="rounded=0;whiteSpace=wrap;html=1;fillColor=#dae8fc;gradientColor=#7ea6e0;strokeColor=#6c8ebf;" parent="1" vertex="1">
          <mxGeometry x="540" y="250" width="120" height="60" as="geometry" />
        </mxCell>
        <mxCell id="usWrYgBn1VHGMb9TMidO-1" value="" style="endArrow=none;html=1;rounded=0;exitX=0.5;exitY=0;exitDx=0;exitDy=0;entryX=0.5;entryY=1;entryDx=0;entryDy=0;strokeWidth=3;" parent="1" source="9ClzFNrSrgSI6OmEs9R7-2" target="9ClzFNrSrgSI6OmEs9R7-1" edge="1">
          <mxGeometry width="50" height="50" relative="1" as="geometry">
            <mxPoint x="390" y="300" as="sourcePoint" />
            <mxPoint x="440" y="250" as="targetPoint" />
            <Array as="points">
              <mxPoint x="265" y="220" />
              <mxPoint x="430" y="220" />
            </Array>
          </mxGeometry>
        </mxCell>
        <mxCell id="usWrYgBn1VHGMb9TMidO-3" value="" style="endArrow=none;html=1;rounded=0;exitX=0.5;exitY=0;exitDx=0;exitDy=0;entryX=0.5;entryY=1;entryDx=0;entryDy=0;strokeWidth=3;" parent="1" source="9ClzFNrSrgSI6OmEs9R7-3" target="9ClzFNrSrgSI6OmEs9R7-1" edge="1">
          <mxGeometry width="50" height="50" relative="1" as="geometry">
            <mxPoint x="275" y="260" as="sourcePoint" />
            <mxPoint x="440" y="200" as="targetPoint" />
            <Array as="points">
              <mxPoint x="430" y="220" />
            </Array>
          </mxGeometry>
        </mxCell>
        <mxCell id="usWrYgBn1VHGMb9TMidO-4" value="" style="endArrow=none;html=1;rounded=0;exitX=0.5;exitY=0;exitDx=0;exitDy=0;entryX=0.5;entryY=1;entryDx=0;entryDy=0;strokeWidth=3;" parent="1" source="9ClzFNrSrgSI6OmEs9R7-4" target="9ClzFNrSrgSI6OmEs9R7-1" edge="1">
          <mxGeometry width="50" height="50" relative="1" as="geometry">
            <mxPoint x="275" y="260" as="sourcePoint" />
            <mxPoint x="440" y="200" as="targetPoint" />
            <Array as="points">
              <mxPoint x="600" y="220" />
              <mxPoint x="430" y="220" />
            </Array>
          </mxGeometry>
        </mxCell>
      </root>
    </mxGraphModel>
  </diagram>
</mxfile>
